<?xml version="1.0" encoding="UTF-8"?>
<svg height="128px" viewBox="0 0 128 128" width="128px" xmlns="http://www.w3.org/2000/svg" xmlns:xlink="http://www.w3.org/1999/xlink">
    <linearGradient id="a" gradientUnits="userSpaceOnUse">
        <stop offset="0" stop-color="#62a0ea"/>
        <stop offset="1" stop-color="#3584e4"/>
    </linearGradient>
    <linearGradient id="b" gradientTransform="matrix(0 -1 -1 0 253.999962 85.999969)" x1="27.999985" x2="40.000015" xlink:href="#a" y1="220" y2="220"/>
    <linearGradient id="c" gradientTransform="matrix(0 -1 -1 0 271.999962 85.999969)" x1="27.999985" x2="40.000015" xlink:href="#a" y1="220" y2="220"/>
    <linearGradient id="d" gradientTransform="matrix(0 -1 -1 0 289.999962 85.999969)" x1="27.999985" x2="40.000015" xlink:href="#a" y1="220" y2="220"/>
    <filter id="e" height="100%" width="100%" x="0%" y="0%">
        <feColorMatrix in="SourceGraphic" type="matrix" values="0 0 0 0 1 0 0 0 0 1 0 0 0 0 1 0 0 0 1 0"/>
    </filter>
    <mask id="f">
        <g filter="url(#e)">
            <rect fill-opacity="0.35" height="128" width="128"/>
        </g>
    </mask>
    <clipPath id="g">
        <rect height="152" width="192"/>
    </clipPath>
    <path d="m 56 52 h 40 c 15.464844 0 28 12.535156 28 28 s -12.535156 28 -28 28 h -40 c -15.464844 0 -28 -12.535156 -28 -28 s 12.535156 -28 28 -28 z m 0 0" fill="#3584e4"/>
    <path d="m 28.023438 79 c 0.527343 15.042969 12.800781 27 27.976562 27 h 30 v 2 h -30 c -15.511719 0 -28 -12.488281 -28 -28 c 0 -0.335938 0.015625 -0.667969 0.023438 -1 z m 95.953124 0.074219 c 0.011719 0.308593 0.023438 0.613281 0.023438 0.925781 c 0 14.152344 -10.398438 25.78125 -24 27.714844 v -2 c 13.257812 -1.882813 23.464844 -12.980469 23.976562 -26.640625 z m 0 0" fill="#1a5fb4" fill-rule="evenodd"/>
    <path d="m 32 24 h 40 c 15.464844 0 28 12.535156 28 28 s -12.535156 28 -28 28 h -40 c -15.464844 0 -28 -12.535156 -28 -28 s 12.535156 -28 28 -28 z m 0 0" fill="#f6f5f4"/>
    <path d="m 34 46 c -3.3125 0 -6 2.6875 -6 6 s 2.6875 6 6 6 s 6 -2.6875 6 -6 s -2.6875 -6 -6 -6 z m 0 0" fill="url(#b)"/>
    <path d="m 52 46 c -3.3125 0 -6 2.6875 -6 6 s 2.6875 6 6 6 s 6 -2.6875 6 -6 s -2.6875 -6 -6 -6 z m 0 0" fill="url(#c)"/>
    <path d="m 70 46 c -3.3125 0 -6 2.6875 -6 6 s 2.6875 6 6 6 s 6 -2.6875 6 -6 s -2.6875 -6 -6 -6 z m 0 0" fill="url(#d)"/>
    <g fill-rule="evenodd">
        <path d="m 99.972656 51 c -0.523437 15.042969 -12.796875 27 -27.972656 27 h -30 v 2 h 30 c 15.511719 0 28 -12.488281 28 -28 c 0 -0.335938 -0.015625 -0.667969 -0.027344 -1 z m -95.949218 0.074219 c -0.011719 0.308593 -0.023438 0.613281 -0.023438 0.925781 c 0 14.152344 10.398438 25.78125 24 27.714844 v -2 c -13.257812 -1.882813 -23.464844 -12.980469 -23.976562 -26.640625 z m 0 0" fill="#c0bfbc"/>
        <path d="m 28 78 v 14 l 16.542969 -14 z m 0 0" fill="#c0bfbc"/>
        <path d="m 28 76 v 14 l 16.546875 -14 z m 0 0" fill="#f6f5f4"/>
        <path d="m 100 106 v 14 l -16.546875 -14 z m 0 0" fill="#1a5fb4"/>
        <path d="m 100 104 v 14 l -16.546875 -14 z m 0 0" fill="#3584e4"/>
    </g>
    <g clip-path="url(#g)" mask="url(#f)" transform="matrix(1 0 0 1 -8 -16)">
        <path d="m 182.980469 21.351562 c -0.179688 2.589844 -2.347657 4.648438 -4.980469 4.648438 h -3.089844 l -2.363281 2 h 4.90625 l 3.546875 3 v -3.140625 c 1.726562 -0.441406 3 -1.992187 3 -3.859375 c 0 -1.023438 -0.390625 -1.941406 -1.019531 -2.648438 z m 0 0" fill="#241f31"/>
    </g>
</svg>
