<?xml version="1.0" encoding="UTF-8"?>
<svg height="128px" viewBox="0 0 128 128" width="128px" xmlns="http://www.w3.org/2000/svg" xmlns:xlink="http://www.w3.org/1999/xlink">
    <linearGradient id="a" gradientUnits="userSpaceOnUse" x1="19.999466" x2="107.50499" y1="63.999985" y2="63.999985">
        <stop offset="0" stop-color="#613583"/>
        <stop offset="0.0357143" stop-color="#dc8add"/>
        <stop offset="0.0714286" stop-color="#813d9c"/>
        <stop offset="0.928571" stop-color="#813d9c"/>
        <stop offset="0.964286" stop-color="#dc8add"/>
        <stop offset="1" stop-color="#613583"/>
    </linearGradient>
    <radialGradient id="b" cx="115.350441" cy="222.412994" gradientTransform="matrix(-0.922624 -0.00000001 0.00025847 -0.399611 206.995422 196.448242)" gradientUnits="userSpaceOnUse" r="43.751949">
        <stop offset="0" stop-color="#613583"/>
        <stop offset="1" stop-color="#613583" stop-opacity="0"/>
    </radialGradient>
    <clipPath id="c">
        <path d="m 44 27 h 40 v 62 h -40 z m 0 0"/>
    </clipPath>
    <clipPath id="d">
        <path d="m 56.964844 64.949219 h 15.125 v -2.328125 c 0 -4.84375 11.15625 -7.609375 11.15625 -19.796875 c 0 -10.03125 -7.4375 -15.65625 -20.578125 -15.65625 c -6.390625 0 -12.875 1.484375 -18.40625 3.890625 l 3.453125 11.328125 c 3.625 -1.546875 7.34375 -2.25 11.15625 -2.25 c 5.703125 0 8.8125 1.640625 8.8125 4.765625 c 0 5.78125 -10.71875 9.59375 -10.71875 17.71875 z m 7.4375 23.9375 c 5.359375 0 9.15625 -3.796875 9.15625 -9.15625 c 0 -5.625 -3.71875 -9.515625 -9.15625 -9.515625 c -5.453125 0 -9.171875 3.890625 -9.171875 9.515625 c 0 5.359375 3.8125 9.15625 9.171875 9.15625 z m -19.796875 -85.828125"/>
    </clipPath>
    <filter id="e" height="100%" width="100%" x="0%" y="0%">
        <feColorMatrix in="SourceGraphic" type="matrix" values="0 0 0 0 1 0 0 0 0 1 0 0 0 0 1 0 0 0 1 0"/>
    </filter>
    <mask id="f">
        <g filter="url(#e)">
            <rect fill-opacity="0.5" height="128" width="128"/>
        </g>
    </mask>
    <clipPath id="g">
        <rect height="152" width="192"/>
    </clipPath>
    <path d="m 27.921875 8.496094 h 71.660156 c 4.375 0 7.921875 3.546875 7.921875 7.921875 v 95.164062 c 0 4.375 -3.546875 7.921875 -7.921875 7.921875 h -71.660156 c -4.375 0 -7.921875 -3.546875 -7.921875 -7.921875 v -95.164062 c 0 -4.375 3.546875 -7.921875 7.921875 -7.921875 z m 0 0" fill="url(#a)"/>
    <path d="m 27.921875 8.496094 h 71.660156 c 4.375 0 7.921875 3.546875 7.921875 7.921875 v 83.230469 c 0 4.375 -3.546875 7.921874 -7.921875 7.921874 h -71.660156 c -4.375 0 -7.921875 -3.546874 -7.921875 -7.921874 v -83.230469 c 0 -4.375 3.546875 -7.921875 7.921875 -7.921875 z m 0 0" fill="#9141ac"/>
    <path d="m 20 101.042969 v 1.375 c 0 4.390625 3.535156 7.925781 7.921875 7.925781 h 71.660156 c 4.390625 0 7.925781 -3.535156 7.925781 -7.925781 v -1.375 c 0 4.386719 -3.535156 7.917969 -7.925781 7.917969 h -71.660156 c -4.386719 0 -7.921875 -3.53125 -7.921875 -7.917969 z m 0 2.726562 v 1.375 c 0 4.390625 3.535156 7.925781 7.921875 7.925781 h 71.660156 c 4.390625 0 7.925781 -3.535156 7.925781 -7.925781 v -1.375 c 0 4.386719 -3.535156 7.917969 -7.925781 7.917969 h -71.660156 c -4.386719 0 -7.921875 -3.53125 -7.921875 -7.917969 z m 0 2.726563 v 1.378906 c 0 4.386719 3.535156 7.921875 7.921875 7.921875 h 71.660156 c 4.390625 0 7.925781 -3.535156 7.925781 -7.921875 v -1.378906 c 0 4.386718 -3.535156 7.921875 -7.925781 7.921875 h -71.660156 c -4.386719 0 -7.921875 -3.535157 -7.921875 -7.921875 z m 0 2.726562 v 1.378906 c 0 4.386719 3.535156 7.921876 7.921875 7.921876 h 71.660156 c 4.390625 0 7.925781 -3.535157 7.925781 -7.921876 v -1.378906 c 0 4.386719 -3.535156 7.921875 -7.925781 7.921875 h -71.660156 c -4.386719 0 -7.921875 -3.535156 -7.921875 -7.921875 z m 0 0" fill="url(#b)"/>
    <path d="m 32.921875 13.496094 h 61.660156 c 4.375 0 7.921875 3.546875 7.921875 7.921875 v 73.230469 c 0 4.375 -3.546875 7.921874 -7.921875 7.921874 h -61.660156 c -4.375 0 -7.921875 -3.546874 -7.921875 -7.921874 v -73.230469 c 0 -4.375 3.546875 -7.921875 7.921875 -7.921875 z m 0 0" fill="#613583"/>
    <path d="m 56.964844 64.949219 h 15.125 v -2.328125 c 0 -4.84375 11.15625 -7.609375 11.15625 -19.796875 c 0 -10.03125 -7.4375 -15.65625 -20.578125 -15.65625 c -6.390625 0 -12.875 1.484375 -18.40625 3.890625 l 3.453125 11.328125 c 3.625 -1.546875 7.34375 -2.25 11.15625 -2.25 c 5.703125 0 8.8125 1.640625 8.8125 4.765625 c 0 5.78125 -10.71875 9.59375 -10.71875 17.71875 z m 7.4375 23.9375 c 5.359375 0 9.15625 -3.796875 9.15625 -9.15625 c 0 -5.625 -3.71875 -9.515625 -9.15625 -9.515625 c -5.453125 0 -9.171875 3.890625 -9.171875 9.515625 c 0 5.359375 3.8125 9.15625 9.171875 9.15625 z m -19.796875 -85.828125" fill="#dc8add"/>
    <g clip-path="url(#c)">
        <g clip-path="url(#d)">
            <g clip-path="url(#g)" mask="url(#f)" transform="matrix(1 0 0 1 -8 -16)">
                <path d="m 40.921875 32 c -4.386719 0 -7.921875 3.535156 -7.921875 7.921875 v 73.234375 c 0 4.386719 3.535156 7.917969 7.921875 7.917969 h 61.660156 c 4.390625 0 7.925781 -3.53125 7.925781 -7.917969 v -73.234375 c 0 -4.386719 -3.535156 -7.921875 -7.925781 -7.921875 z m 29.75 13.679688 c 13.136719 0 20.574219 5.617187 20.574219 15.644531 c 0 12.1875 -11.152344 14.953125 -11.152344 19.792969 v 2.335937 h -15.125 v -2.335937 c 0 -8.125 10.71875 -11.925782 10.71875 -17.71875 c 0 -3.109376 -3.113281 -4.753907 -8.816406 -4.753907 c -3.804688 0 -7.523438 0.691407 -11.152344 2.25 l -3.457031 -11.324219 c 5.53125 -2.421874 12.015625 -3.890624 18.410156 -3.890624 z m 1.730469 43.046874 c 5.445312 0 9.160156 3.890626 9.160156 9.507813 c 0 5.359375 -3.804688 9.160156 -9.160156 9.160156 c -5.359375 0 -9.164063 -3.800781 -9.164063 -9.160156 c 0 -5.617187 3.714844 -9.507813 9.164063 -9.507813 z m 0 0" fill="#613583"/>
            </g>
        </g>
    </g>
</svg>
