<?xml version="1.0" encoding="UTF-8"?>
<svg height="16px" viewBox="0 0 16 16" width="16px" xmlns="http://www.w3.org/2000/svg">
    <path d="m 4.507812 1.300781 c -0.816406 0 -1.472656 0.65625 -1.472656 1.472657 v 9.171874 c 0.019532 0.832032 0.613282 1.496094 1.347656 1.496094 h 7.234376 c 0.746093 0 1.347656 -0.683594 1.347656 -1.535156 v -9.132812 c 0 -0.816407 -0.65625 -1.472657 -1.472656 -1.472657 z m 1.554688 1.859375 h 3.875 c 0.8125 0 1.46875 0.65625 1.46875 1.472656 v 5.378907 c 0 0.816406 -0.65625 1.476562 -1.46875 1.476562 h -3.875 c -0.8125 0 -1.46875 -0.660156 -1.46875 -1.476562 v -5.378907 c 0 -0.816406 0.65625 -1.472656 1.46875 -1.472656 z m 6.902344 9.589844 c 0 0.851562 -0.601563 1.539062 -1.347656 1.539062 h -7.234376 c -0.734374 0 -1.328124 -0.664062 -1.347656 -1.496093 v 1.042969 c 0 0.816406 0.65625 1.476562 1.472656 1.476562 h 6.984376 c 0.816406 0 1.472656 -0.660156 1.472656 -1.476562 z m 0 0"/>
    <path d="m 7.28125 7.925781 h 1.59375 v -0.25 c 0 -0.515625 1.171875 -0.796875 1.171875 -2.078125 c 0 -1.0625 -0.78125 -1.65625 -2.15625 -1.65625 c -0.671875 0 -1.359375 0.15625 -1.9375 0.40625 l 0.359375 1.203125 c 0.375 -0.171875 0.765625 -0.234375 1.171875 -0.234375 c 0.59375 0 0.921875 0.171875 0.921875 0.5 c 0 0.609375 -1.125 1 -1.125 1.859375 z m 0.78125 2.515625 c 0.5625 0 0.96875 -0.40625 0.96875 -0.96875 c 0 -0.59375 -0.390625 -1 -0.96875 -1 c -0.5625 0 -0.953125 0.40625 -0.953125 1 c 0 0.5625 0.390625 0.96875 0.953125 0.96875 z m -2.078125 -9.035156"/>
</svg>
